<?xml version="1.0" standalone="no"?><!DOCTYPE svg PUBLIC "-//W3C//DTD SVG 1.1//EN" "http://www.w3.org/Graphics/SVG/1.1/DTD/svg11.dtd"><svg t="1735041868551" class="icon" viewBox="0 0 1024 1024" version="1.1" xmlns="http://www.w3.org/2000/svg" p-id="5254" xmlns:xlink="http://www.w3.org/1999/xlink" width="200" height="200"><path d="M257.8 635.6c-6.6 0-12.9-3.9-15.7-10.4-15.2-36.1-23-74.3-23-113.8s7.7-77.8 23-113.8c14.7-34.8 35.8-66.1 62.7-93 26.9-26.9 58.1-47.9 93-62.7 8.6-3.7 18.6 0.4 22.3 9 3.7 8.6-0.4 18.6-9 22.3-30.8 13-58.4 31.7-82.2 55.4-23.7 23.7-42.4 51.4-55.4 82.2-13.5 31.8-20.3 65.7-20.3 100.6 0 34.9 6.8 68.7 20.3 100.6 3.7 8.6-0.4 18.6-9 22.3-2.3 0.9-4.5 1.3-6.7 1.3z" fill="#F21D40" p-id="5255"></path><path d="M508.5 152.2c48.6 0 95.8 9.5 140.1 28.3 42.9 18.1 81.4 44.1 114.4 77.2s59 71.6 77.2 114.4c18.8 44.4 28.3 91.5 28.3 140.1 0 48.6-9.5 95.8-28.3 140.1-18.1 42.9-44.1 81.4-77.2 114.4s-71.6 59-114.4 77.2c-44.3 18.8-91.5 28.3-140.1 28.3-48.6 0-95.8-9.5-140.1-28.3-42.9-18.1-81.4-44.1-114.4-77.2s-59-71.6-77.2-114.4c-18.8-44.3-28.3-91.5-28.3-140.1s9.5-95.8 28.3-140.1c18.1-42.9 44.1-81.4 77.2-114.4s71.6-59 114.4-77.2c44.3-18.8 91.5-28.3 140.1-28.3m0-50c-226.4 0-410 183.6-410 410s183.6 410 410 410 410-183.6 410-410-183.6-410-410-410z" fill="#1A1A1A" p-id="5256"></path></svg>